<svg width="20" height="21" viewBox="0 0 20 21" fill="none" xmlns="http://www.w3.org/2000/svg">
<path d="M5.518 14.7314H19.246C18.808 18.9504 15.596 20.6414 14.137 20.7324C12.677 20.8224 1.047 20.7324 0.0440038 20.7324C-0.229996 20.7324 0.682004 14.7314 5.518 14.7314Z" fill="#B3B3B3"/>
<path d="M9.426 0H0C0.408 4.184 3.397 5.862 4.756 5.952C6.114 6.042 13.587 5.952 14.521 5.952C14.776 5.952 13.927 0 9.426 0ZM13.729 7.183H0C0.438 11.403 3.65 13.093 5.109 13.185C6.569 13.275 18.199 13.185 19.202 13.185C19.476 13.185 18.564 7.183 13.728 7.183" fill="#04CD77"/>
</svg>
